
		<svg xmlns="http://www.w3.org/2000/svg" xmlns:xlink="http://www.w3.org/1999/xlink" version="1.1" width="3086.7052023121387" height="3008.6705202312137">
			<rect fill="#111516" width="3086.7052023121387" height="3008.6705202312137"/>
			<g transform="scale(4.335260115606936) translate(10, 10)">
				<defs id="SvgjsDefs1246"/><g id="SvgjsG1247" transform="translate(0.011791574768722057, 0) scale(6.612503529658157)" feature="container" rel="inversefill" name="filled_container" xmlns:name="filledContainer_inversefill" fill="#fff"><path xmlns="http://www.w3.org/2000/svg" d="M50.8 102h5.8l1.8-.2 1.7-.3h1.7l1.9-.3 1.8-.4.9-.2.9-.3 1.7-.6 2-.8a54 54 0 0 0 15.3-9.4l1.4-1.2.7-.5.6-.4 1-.5.8-.5 1.5-1.2 1.5-1.5.8-1 .9-1.1a50.9 50.9 0 0 0 3.9-5.8 34.8 34.8 0 0 0 1.6-3.1l.2-.4.2-.4.3-.8.3-.9.2-.4v-.4l.4-1.2.2-.6v-.3h.1v-.2l.7-2.5c.2-.9.4-1.7.5-2.6a25.4 25.4 0 0 0 .2-2.6v-3.1c0-.3 0-1 .1-1.5v-2.1a21.3 21.3 0 0 0 .2-2.6v-2.6c0-.9-.1-1.1-.1-1.6l-.2-1.5c-.1-1-.4-2-.5-3s-.2-1-.3-1.4l-.3-1.4-.3-1.4v-1.7l-.4-1.4-.2-.7-.2-.7-.4-1.4-.5-1.4-.4-1-.5-1-1-2.1a40.7 40.7 0 0 1-1.8-4.1 3.6 3.6 0 0 0-.8-1.2l-.7-.6-.2-.3-.3-.5a25.7 25.7 0 0 0-1.6-2.3l-.8-1.1-.9-1.1-.4-.5-.2-.3-.2-.2h-.1l-.9-1-.5-.5-.5-.5-.9-1.1-1.1-1a47.9 47.9 0 0 0-3.8-3l-.1-.5-1.3-.9A29 29 0 0 0 72 .4h-3.1a.8.8 0 0 0-.6 1.2A3.9 3.9 0 0 0 69.9 3l-.6.3-.4-.2a.9.9 0 0 0 0-.3c-.1-.5-.2-.9-1.3-1.3L65.3.7l-.6-.2h-.6L62.8 0l-1.3 1.2A48.5 48.5 0 0 0 39 2.4 31.1 31.1 0 0 0 31.4 4h-.5l-.5.2-1 .4-1 .5-.9.6-1.8 1.5-.8.6-.7.7c-1 .9-1.9 1.9-2.8 2.8L20 12.8l-1.4 1.5-.5.5-.5.5-1.1 1a55.1 55.1 0 0 0-7 7l.2-.5.6-1.1.6-1.1.6-1.1.6-1.2.6-1.2 1.2-2.4.4-.8.3-.6a1 1 0 0 0 0-.8 3.7 3.7 0 0 1-.2-1.2 17.1 17.1 0 0 0-2.1 1.1l-1.5 1.1-.8.6-.7.7-.8 1-.5 1-.5 1-.2.5-.3.5-.3.6-.4.8-.4.8-.7 1.7-.5 1.3-.5 1.3v.7l-.2.6-.3 1.3v.2h-.4v.3l-.2.7-.3 1.4-.2.7-.2.7-.4 1.7-.4 1.9-.2.9v2.8l-.6 1.9a38.3 38.3 0 0 0-.1 4.1 52.7 52.7 0 0 0-.7 8.7 5.2 5.2 0 0 0 0 .7c.5 3 .8 6 1.5 9l.4 1.8.5 1.8a18.3 18.3 0 0 0 .6 1.7l.4.8.4.8.9 1.7.5.8.5.8.5.8.5.8L7.8 77c1.4 2 2.9 4 4.5 5.9a35.6 35.6 0 0 0 2.6 2.7l.7.6.3.3.4.3 1.5 1.1 1 1a34 34 0 0 0 8.2 6.2l1.4.7 1.5.7.7.3.8.3 1.5.6.9.4.8.4.8.4 1 .4 1.9.7 1.9.6 1.6.4 1.6.4 1.6.3h5.7z" fill=""/></g><g id="main_text" rel="mainfill" name="main_text" feature="main_text" xmlns:name="mainText_mainfill" groupName="main_text" fill="#02081b" transform="translate(221.13599996566774, 310.1680004119873) scale(3.6)"><path d="M2.28 28.080000000000002 l-2.04 -16.46 l1.58 0 q0.12 1.02 0.27 2.33 t0.3 2.72 t0.31 2.81 t0.29 2.6 t0.22 2.1 t0.13 1.28 q0.04 -0.4 0.14 -1.29 t0.23 -2.09 t0.3 -2.6 t0.34 -2.81 t0.33 -2.72 t0.3 -2.33 l1.52 0 l-2.18 16.46 l-2.04 0 z M7.54 14.120000000000001 l0 -2.5 l1.38 0 l0 2.5 l-1.38 0 z M7.54 28.080000000000002 l0 -12.38 l1.38 0 l0 12.38 l-1.38 0 z M13.299999999999999 28.16 q-0.1 0.04 -0.29 0.07 t-0.35 0.03 q-1.1 0 -1.64 -0.68 t-0.54 -1.88 l0 -8.78 l-0.58 0 l0 -1.22 l0.58 0 l0 -3.92 l1.38 0 l0 3.92 l1.4 0 l0 1.22 l-1.4 0 l0 8.78 q0 0.76 0.27 1.07 t0.91 0.31 l0.13 0 t0.13 -0.02 l0 1.1 z M17.32 28.080000000000002 q-0.08 -0.26 -0.08 -0.74 q-0.5 0.92 -1.48 0.92 q-0.84 0 -1.31 -0.46 t-0.47 -1.5 l0 -1.82 q0 -0.9 0.25 -1.51 t0.68 -1.03 t1.01 -0.71 t1.24 -0.57 l0 -2.7 q0 -0.52 -0.19 -0.8 t-0.71 -0.28 q-0.54 0 -0.72 0.28 t-0.18 0.8 l0 2.6 l-1.22 0 l0 -2.62 q0 -1.22 0.51 -1.83 t1.65 -0.61 q2.18 0 2.18 2.44 l0 8.72 q0 0.44 0.02 0.82 t0.08 0.6 l-1.26 0 z M17.16 21.76 q-0.6 0.22 -0.97 0.48 t-0.56 0.59 t-0.25 0.76 t-0.06 0.99 l0 1.32 q0 1.02 0.94 1.02 q0.3 0 0.55 -0.18 t0.35 -0.6 l0 -4.38 z M19.939999999999998 28.080000000000002 l0 -16.46 l1.38 0 l0 16.46 l-1.38 0 z  M25.519999999999996 28.080000000000002 l0 -16.46 l4.36 0 l0 1.54 l-2.84 0 l0 5.78 l2 0 l0 1.52 l-2 0 l0 6.12 l2.94 0 l0 1.5 l-4.46 0 z M34 24.5 q0 -0.4 -0.11 -0.69 t-0.49 -0.75 q-0.42 -0.5 -0.94 -0.95 t-0.9 -0.91 q-0.4 -0.44 -0.52 -0.88 t-0.12 -1.16 l0 -1.28 q0 -1.28 0.56 -1.83 t1.64 -0.55 q1.26 0 1.73 0.56 t0.47 1.82 l0 2.02 l-1.26 0 l0 -2.02 q0 -0.46 -0.26 -0.73 t-0.64 -0.27 q-0.9 0 -0.9 1 l0 1.46 q0 0.44 0.11 0.69 t0.45 0.61 q0.4 0.44 0.9 0.84 t0.88 0.84 q0.46 0.54 0.62 1.05 t0.16 1.31 l0 1.34 q0 1.2 -0.57 1.72 t-1.73 0.52 q-2.16 0 -2.16 -2.3 l0 -2.02 l1.24 0 l0 1.98 q0 0.46 0.27 0.73 t0.67 0.27 q0.9 0 0.9 -1 l0 -1.42 z M39.54 28.16 q-0.1 0.04 -0.29 0.07 t-0.35 0.03 q-1.1 0 -1.64 -0.68 t-0.54 -1.88 l0 -8.78 l-0.58 0 l0 -1.22 l0.58 0 l0 -3.92 l1.38 0 l0 3.92 l1.4 0 l0 1.22 l-1.4 0 l0 8.78 q0 0.76 0.27 1.07 t0.91 0.31 l0.13 0 t0.13 -0.02 l0 1.1 z M43.739999999999995 28.080000000000002 l0 -10.22 q0 -0.54 -0.18 -0.77 t-0.62 -0.23 q-0.3 0 -0.6 0.18 t-0.46 0.58 l0 10.46 l-1.38 0 l0 -16.46 l1.38 0 l0 4.78 q0.28 -0.4 0.7 -0.65 t0.94 -0.25 q0.84 0 1.22 0.54 t0.38 1.74 l0 10.3 l-1.38 0 z M49.48 18.040000000000003 q0 -1.1 -0.92 -1.1 q-0.86 0 -0.86 1.1 l0 2.98 l1.78 0 l0 -2.98 z M49.48 23.040000000000003 l1.3 0 l0 2.72 q0 2.5 -2.22 2.5 q-2.14 0 -2.14 -2.5 l0 -7.72 q0 -1.26 0.55 -1.9 t1.59 -0.64 q2.22 0 2.22 2.54 l0 3.98 l-3.08 0 l0 3.74 q0 1.1 0.86 1.1 q0.92 0 0.92 -1.1 l0 -2.72 z M55 28.16 q-0.1 0.04 -0.29 0.07 t-0.35 0.03 q-1.1 0 -1.64 -0.68 t-0.54 -1.88 l0 -8.78 l-0.58 0 l0 -1.22 l0.58 0 l0 -3.92 l1.38 0 l0 3.92 l1.4 0 l0 1.22 l-1.4 0 l0 8.78 q0 0.76 0.27 1.07 t0.91 0.31 l0.13 0 t0.13 -0.02 l0 1.1 z M56 14.120000000000001 l0 -2.5 l1.38 0 l0 2.5 l-1.38 0 z M56 28.080000000000002 l0 -12.38 l1.38 0 l0 12.38 l-1.38 0 z M61.959999999999994 23.020000000000003 l1.28 0 l0 2.76 q0 1.14 -0.53 1.81 t-1.67 0.67 t-1.7 -0.69 t-0.56 -1.83 l0 -7.68 q0 -1.14 0.56 -1.85 t1.7 -0.71 t1.65 0.7 t0.51 1.84 l0 2.68 l-1.24 0 l0 -2.7 q0 -1.1 -0.92 -1.1 q-0.46 0 -0.69 0.3 t-0.23 0.82 l0 7.7 q0 1.12 0.92 1.12 t0.92 -1.1 l0 -2.74 z M67.44 24.5 q0 -0.4 -0.11 -0.69 t-0.49 -0.75 q-0.42 -0.5 -0.94 -0.95 t-0.9 -0.91 q-0.4 -0.44 -0.52 -0.88 t-0.12 -1.16 l0 -1.28 q0 -1.28 0.56 -1.83 t1.64 -0.55 q1.26 0 1.73 0.56 t0.47 1.82 l0 2.02 l-1.26 0 l0 -2.02 q0 -0.46 -0.26 -0.73 t-0.64 -0.27 q-0.9 0 -0.9 1 l0 1.46 q0 0.44 0.11 0.69 t0.45 0.61 q0.4 0.44 0.9 0.84 t0.88 0.84 q0.46 0.54 0.62 1.05 t0.16 1.31 l0 1.34 q0 1.2 -0.57 1.72 t-1.73 0.52 q-2.16 0 -2.16 -2.3 l0 -2.02 l1.24 0 l0 1.98 q0 0.46 0.27 0.73 t0.67 0.27 q0.9 0 0.9 -1 l0 -1.42 z"/></g><g id="SvgjsG1249" rel="mainfill" name="symbol" feature="symbol" xmlns:name="symbol_mainfill" fill="#02081b" transform="translate(240.35003662109375, 188.51223484395692) scale(0.21249898274739584)"><defs/><g><path d="M928 481c-201,98 -328,129 -381,92 -11,-3 -20,-1 -25,4 12,-1 18,2 17,9 -4,19 -17,30 -37,33 19,-3 33,-9 42,-17 -17,14 -27,27 -31,40 11,-20 24,-33 39,-40 -7,15 -18,29 -33,44 8,-2 20,-14 37,-38 -1,6 -6,14 -14,24 9,-9 15,-16 17,-22 -2,16 -8,28 -19,37 13,-13 20,-24 23,-35 -1,15 -7,28 -18,41 8,-8 16,-20 24,-37 -2,9 -6,19 -13,29 9,-11 15,-19 18,-26 -2,17 -8,30 -17,39 10,-4 19,-12 27,-25 0,8 -3,16 -9,24 9,-7 13,-14 13,-21 -3,11 -4,19 -3,24 3,-12 6,-20 11,-24 0,14 -4,27 -13,39 9,-7 17,-18 23,-33 0,10 -4,20 -12,32 6,-5 12,-13 17,-25 -1,11 -5,20 -12,28 5,-9 12,-18 21,-29 -3,16 -9,27 -18,33 11,-5 21,-17 29,-36 -1,16 -4,29 -9,40 8,-9 12,-21 14,-35 4,7 5,15 4,25 2,-10 3,-17 3,-21 5,9 7,19 7,31 3,-18 4,-30 2,-36 6,5 10,21 12,48 1,-26 0,-42 -2,-50 7,17 12,35 15,55 -3,-28 -3,-45 -1,-49 13,22 21,39 24,52 -7,-32 -11,-51 -14,-57 12,13 26,23 41,28 -20,-12 -30,-22 -29,-30 23,12 41,27 53,45 -16,-28 -27,-45 -34,-51 10,11 24,19 42,23 -20,-9 -32,-18 -34,-25 25,9 42,20 50,35 -11,-17 -19,-29 -25,-35 14,11 29,17 44,19 -20,-9 -30,-16 -30,-21 23,5 38,17 46,37 -11,-23 -20,-36 -27,-40 14,6 26,9 35,9 -19,-6 -30,-14 -33,-24 22,6 38,16 48,30 -10,-15 -21,-26 -32,-31 15,7 25,10 31,8 -10,-2 -17,-7 -21,-13 21,8 37,8 49,1 -19,4 -36,-1 -50,-13 14,8 29,11 44,8 -12,0 -22,-4 -30,-12 21,11 42,12 62,4 -31,6 -52,1 -62,-14 13,8 26,12 41,12 -26,-5 -38,-16 -35,-31 -1,-10 31,-39 98,-86zm-558 -77c4,24 19,40 45,46 217,-82 397,-107 542,-73 -88,-34 -173,-69 -258,-57 -85,12 -212,34 -329,84zm-100 165c16,13 32,54 36,67 -11,-20 -21,-38 -36,-45 7,15 15,34 30,49 -8,-2 -20,-14 -37,-38 1,6 6,14 14,24 -9,-9 -15,-17 -17,-22 2,16 8,28 19,37 -13,-13 -20,-24 -23,-35 1,15 7,28 18,41 -8,-8 -16,-20 -24,-37 2,9 6,19 13,29 -9,-11 -15,-19 -18,-26 2,17 8,30 17,39 -10,-4 -19,-13 -27,-25 0,8 3,16 9,24 -9,-8 -13,-15 -13,-21 3,11 4,19 3,24 -2,-12 -6,-20 -11,-24 0,14 4,27 13,39 -9,-7 -17,-18 -23,-33 0,10 4,20 12,32 -6,-5 -12,-13 -17,-25 2,11 6,20 12,28 -4,-9 -11,-19 -21,-29 3,16 9,27 18,33 -11,-5 -21,-17 -29,-36 1,16 4,29 9,40 -7,-9 -12,-21 -14,-35 -4,7 -5,15 -4,25 -2,-10 -3,-17 -3,-21 -4,9 -7,19 -7,31 -3,-18 -4,-30 -2,-36 -5,5 -9,21 -12,48 -1,-26 0,-42 2,-50 -7,17 -12,35 -15,55 3,-28 3,-45 1,-49 -13,22 -21,39 -24,52 7,-32 12,-51 14,-57 -12,13 -26,23 -41,28 20,-12 30,-22 29,-30 -23,12 -41,27 -53,45 16,-28 27,-45 34,-51 -10,11 -24,19 -42,23 20,-9 29,-27 32,-34 -25,9 -39,29 -48,44 20,-32 32,-53 44,-68 -15,6 -26,9 -35,9 18,-6 32,-11 36,-21 -22,6 -41,13 -51,27 10,-16 29,-24 41,-29 -15,7 -38,2 -43,0 11,7 54,-9 100,-24 7,9 80,38 134,8zm-71 -173c8,18 9,37 3,57 -5,-3 -55,-24 -151,-62 -8,-24 -6,-46 7,-66 86,42 133,66 141,71z"/></g></g>
			</g>
		</svg>
	